<svg id="Layer_1" data-name="Layer 1" xmlns="http://www.w3.org/2000/svg" xmlns:xlink="http://www.w3.org/1999/xlink" viewBox="0 0 214.11 337.83"><defs><style>.cls-1{fill:none;}.cls-2{clip-path:url(#clip-path);}.cls-3{fill:#221f20;}.cls-4{fill:#fefefe;}.cls-5{fill:#c69c6d;}.cls-6{fill:red;}.cls-7{fill:blue;}.cls-8{fill:#39b54a;}.cls-9{fill:#cbcbcb;}.cls-10{fill:#cacaca;}.cls-11{fill:#b3b3b3;}</style><clipPath id="clip-path" transform="translate(-565.82 -204)"><rect class="cls-1" x="565.82" y="204" width="214.11" height="337.83"/></clipPath></defs><title>dsa-lion-logo</title><g id="Artwork_5" data-name="Artwork 5"><g class="cls-2"><g class="cls-2"><path class="cls-3" d="M779.93,332.77a6.54,6.54,0,0,0-3.29-4.79c-8.29-5-16.54-10-24.78-15-2.7-1.65-8.32-4.83-8.34-4.89s6.11,1.71,8.91,2.42c7.73,2,15.51,3.77,23.25,5.72.68.17,1.66.62,2-.13s-.63-1.17-1.19-1.55c-2-1.38-4.07-2.67-6.12-4q-22.7-14.49-45.33-29a4.75,4.75,0,0,0-4.45-.56c-15.88,5.16-31.7,10.5-47.53,15.8a7.3,7.3,0,0,1-4.62,0c-15.81-5.36-31.73-10.39-47.52-15.79a4.53,4.53,0,0,0-4.45.57c-3.88,2.75-7.82,5.42-11.74,8.1C593.85,297.07,583,304.55,572.1,312c-.69.47-1.67,1.53-1.57,2,.15.74,1.4.62,1.86.46,8-2.74,16.44-3.94,24.45-5.82-9.72,5.89-19.63,13.35-29.52,19.38-6.05,3.69,8,76.87,9.78,74.4l.39-.56c3.11-4.53,6.28-9,9.39-13.54a25.57,25.57,0,0,1,1.79-2.42c.06,4.2-.43,25.85-.66,32.85a6.68,6.68,0,0,0,2.3,5.86c8.77,8.52,17.2,17.38,26.14,25.73,1.87,1.74,2.23,1.7,3.77-.43,1.9-2.63,3.62-5.39,5.62-8.22-.21,5.27,0,10.3-.12,15.33,0,.83,7,14.51,15.58,30.67l10.06-28.88a99.91,99.91,0,0,1-8.58,31.66c5.76,10.8,12.08,22.41,17.4,31.9l3.63-6.63a80.45,80.45,0,0,1-3,7.67c5.38,9.57,9.66,16.79,11.17,18.46,1.36-1.88,5.57-9.1,10.92-18.58a80.59,80.59,0,0,1-3-7.55l3.57,6.52c5.34-9.45,11.72-21,17.55-31.6a100,100,0,0,1-8.67-31.85l10.15,29.14c8.66-15.84,15.76-29.13,15.75-29.73,0-3.63,0-14.33,0-16.47,1.86,3,3.24,5.8,4.85,8.44,1.08,1.76,1.59,1.83,3.11.41.29-.27,17.53-18.09,26.14-26.45a5.15,5.15,0,0,0,1.58-3.94c.08-6.65-.65-30.46-.72-34.31,3.9,5.58,7.5,10.93,11.17,16.24Z" transform="translate(-565.82 -204)"/><path class="cls-4" d="M723.83,354.83c-4.27-3.41-8.51-6.86-12.76-10.29-1.29,0-1.17,1-1.25,1.8a24.83,24.83,0,0,1-3.14,10.13,12.22,12.22,0,0,1-9.15,6.28,23.25,23.25,0,0,1-6.07-.14c-.84-.09-1.61-.1-1.79,1a38.45,38.45,0,0,0-.52,5.22c.09,3.19-2.38,4.68-4,6.8-.34-4-.57-7.93-.62-11.86a4,4,0,0,0-1.73-3.49c-3.67-2.83-6.44-6.31-6.82-11.2a4.08,4.08,0,0,1,0-2.42c.6.14.51.73.71,1.11a16.62,16.62,0,0,0,8,7.76c.69-2.56,1.42-5,2-7.44a2.78,2.78,0,0,1,1.74-2.06c2.34-1.1,4.63-2.32,6.94-3.49a13.54,13.54,0,0,0,2.32-2A26.15,26.15,0,0,0,704,320.33c-.17-1.8-.07-3.77-1.5-5.26a90.05,90.05,0,0,0-10.93-7.41,2.29,2.29,0,0,0-2.62-.06c-6.52,3.52-13.08,6.95-19.58,10.49a2.41,2.41,0,0,1-2.62,0c-6.51-3.53-13-7-19.58-10.49-.58-.3-1.1-.73-1.86-.27a81.82,81.82,0,0,0-12.16,8.3,4.59,4.59,0,0,0-.88,1.8,23.46,23.46,0,0,0,.44,11.91,26.57,26.57,0,0,0,13.07,15.58,8.78,8.78,0,0,0,1.34.73,4,4,0,0,1,2.78,3.43c.41,2.15,1.11,4.25,1.72,6.52a16.62,16.62,0,0,0,8.65-9.5c.69,6.11-2.09,10.57-6.61,14.09a4.21,4.21,0,0,0-1.86,3.63c0,3.93-.3,7.86-.48,12-2.45-2.49-4.53-4.8-4.25-8.35a14.7,14.7,0,0,0-.3-2.86c-.32-2.24-.32-2.25-2.6-1.82-.61.11-1.22.15-1.83.23a21.19,21.19,0,0,1-2.76.05,9.62,9.62,0,0,1-5.83-2.38,16.36,16.36,0,0,1-4.56-6.2,38.83,38.83,0,0,1-2.62-8.36c-.13-.69-.07-1.69-1.25-1.63-4.32,3.49-8.63,7-13,10.45a1.17,1.17,0,0,0-.23,1.85,14.92,14.92,0,0,0,2,2.28,59.69,59.69,0,0,0,9.6,6.64,35.48,35.48,0,0,0,10.7,4.15c2.28.45,4.58.22,6.85.42.11.62-.25,1-.48,1.33-3.07,5.08-5.86,10.32-8.74,15.5a26,26,0,0,0-3.25,7.39,15.58,15.58,0,0,1-.34,1.65c-.41,1.37,0,1.92,1.48,2.19,3.71.64,7.38,1.53,11.07,2.32.19.1.39.18.57.28.55.78-.27.8-.6,1-3.21,2.08-6.47,4.09-9.69,6.16-.58.36-1.63.55-1.16,1.69.79,1,1.79.72,2.8.53,3.83-.72,7.56-1.88,11.46-2.23.63.43.28,1,.22,1.54-.2,1.63-.66,3.21-.85,4.83-.09.74-.25,1.71,1.08,1.48a10.49,10.49,0,0,0,3.07-.87c3.55-1.38,6.57-3.68,9.75-5.69.72-.85.49-1.8.28-2.75-1.68-7.55-5.06-14-11.79-18.33l-4.64-2.81a5.51,5.51,0,0,1,3.93-1.9,19,19,0,0,0,2.72,0,12.27,12.27,0,0,1,4.84,1.43q7,3,14,6.17a2.39,2.39,0,0,0,2.22,0c4.79-2.16,9.62-4.24,14.42-6.37a16.54,16.54,0,0,1,5-1.45,7,7,0,0,1,6.12,2l-7.21,4.26a21,21,0,0,0-2.46,2.77,53.94,53.94,0,0,0-6.78,14.75,1.9,1.9,0,0,0,.06,1.94c1.73,1.14,3.44,2.34,5.21,3.43a22,22,0,0,0,7.69,3.34c1.38.46,1.39-.42,1.3-1.35-.21-2-.88-3.84-.78-5.84.59-.38,1.31.16,1.9-.26a93.55,93.55,0,0,1,10,2,2.82,2.82,0,0,0,3.08-1.14,5.28,5.28,0,0,0,1.2-2.56c.1-.9-.7-.91-1.21-1.1-3.87-1.48-7.74-3-11.75-4.09-.24-.18-.86.05-.67-.61,4.16-.93,8.33-1.87,12.5-2.78.74-.16,1.27-.31,1.09-1.28-.4-2.05-.71-4.11-1.06-6.17a20.41,20.41,0,0,0-1.18-3.16,116.93,116.93,0,0,0-6.15-10.55c-1.35-2.12-2.89-4.12-4.43-6.42a38.7,38.7,0,0,0,7.55-.79c6.7-1.52,12.47-5,18-8.88a13.71,13.71,0,0,0,2.94-2.8c.39-1.1,1.76-2.09.18-3.35" transform="translate(-565.82 -204)"/><path class="cls-4" d="M670.27,419.88a12.74,12.74,0,0,0-8,.48,26.17,26.17,0,0,0-9.88,6.95c-.72.77-1.67,1.4-1.89,2.55.2,1.46,1.33,2.29,2.23,3.28.7.75,1,.54,1.37-.34.58-1.57,1.27-3.09,2-4.76.42,1.37.68,2.53,1.12,3.62,3.24,8.1,12.54,9.67,18.21,3.09a17.48,17.48,0,0,0,1.7-2.32c.85-1.45,1.61-2.95,2.49-4.57l2.33,5.93a8.62,8.62,0,0,0,3.3-3.88c.17-1.11-.58-1.77-1.22-2.47-3.73-4.07-8.57-6.13-13.76-7.56" transform="translate(-565.82 -204)"/><path class="cls-5" d="M685.25,429.91c-2.85-4.38-7.12-6.76-11.86-8.51-3.28-1.21-6.56-2-10-.86a25.45,25.45,0,0,0-10.52,7.1,11,11,0,0,1-2.29,2.22c-1.55-2.59-1.47-5.37-.94-8.2.1-.59.58-.79,1-1,5.48-2.94,11-5.86,16.43-8.84a1.73,1.73,0,0,1,1.88.06q8.12,4.41,16.27,8.79a1.68,1.68,0,0,1,1,1.21,11.66,11.66,0,0,1-1,8.06" transform="translate(-565.82 -204)"/><path class="cls-6" d="M612.12,356.81a85.23,85.23,0,0,0,12,8.54c5.49,3.08,11.24,4.94,17.62,4.3.21,0,.44-.12.68.28-4.69,8-9.34,16.2-13.57,24.59.81-5.7,1.59-11.41,2.48-17.1a1.59,1.59,0,0,0-1.08-2c-6.91-3.38-12.63-8.1-16.46-14.88a12.15,12.15,0,0,1-1.63-3.7" transform="translate(-565.82 -204)"/><path class="cls-6" d="M706.93,390.78c-1.75-3.15-3.44-6.34-5.27-9.44a117.18,117.18,0,0,0-7.48-11.09c1.85-.53,3.64-.2,5.38-.41,5.76-.68,10.83-3,15.74-5.89,2.93-1.72,5.54-3.88,8.35-5.77a28,28,0,0,1-7.17,10.13A38.34,38.34,0,0,1,706,375.44a1.52,1.52,0,0,0-1,1.94c.66,4.47,1.53,8.9,1.89,13.4" transform="translate(-565.82 -204)"/><path class="cls-7" d="M632.92,315.92c-1.71,3.84-1.28,9.39-.43,13.24,2.56,5.55,5.57,10.83,10.68,14.1a9.48,9.48,0,0,1,2.14,1.7c-4.33-2.07-9-3.78-13.34-5.86-1.68-.81-7.33-4.29-7.35-6a44.18,44.18,0,0,1,.85-9.1,5.34,5.34,0,0,1,1-2.13,27.66,27.66,0,0,1,6.46-5.93" transform="translate(-565.82 -204)"/><path class="cls-7" d="M703.21,315.92c1.71,3.84,1.28,9.39.43,13.24-2.57,5.55-5.57,10.83-10.68,14.1a9.48,9.48,0,0,0-2.14,1.7c4.33-2.07,9-3.78,13.34-5.86,1.68-.81,7.33-4.29,7.35-6a44.88,44.88,0,0,0-.85-9.1,5.34,5.34,0,0,0-1-2.13,27.66,27.66,0,0,0-6.46-5.93" transform="translate(-565.82 -204)"/><path class="cls-7" d="M639.34,363.58c-4.29-.31-7.09-2.9-9.24-6.3A31.47,31.47,0,0,1,626,345.91c-.09-.51.05-1.19-.69-1.4.3-.58.73-.39,1.15-.18.61.3,1.18.68,1.81.93a7.27,7.27,0,0,1,4.73,5.28c1.46,5.28,6.06,8.36,11.79,8.56,1.27,0,1.67.42,1.67,1.64s.19,2.59.3,3.88c-.21-1.57-1.08-1.88-2.44-1.28a4,4,0,0,1-2,.25,6.06,6.06,0,0,0-3,0" transform="translate(-565.82 -204)"/><path class="cls-7" d="M696.84,363.58c4.3-.31,7.09-2.9,9.24-6.3a31.29,31.29,0,0,0,4.08-11.37c.1-.51,0-1.19.7-1.4-.3-.58-.74-.39-1.15-.18-.61.3-1.19.68-1.81.93a7.23,7.23,0,0,0-4.73,5.28c-1.46,5.28-6.06,8.36-11.8,8.56-1.27,0-1.67.42-1.67,1.64s-.19,2.59-.3,3.88c.22-1.57,1.08-1.88,2.44-1.28a4.06,4.06,0,0,0,1.95.25,6.06,6.06,0,0,1,3.05,0" transform="translate(-565.82 -204)"/><path class="cls-8" d="M687.56,389.72c-1.35,2.11-2.79,4.17-4,6.34a50.62,50.62,0,0,0-5.15,13.12c-1.79-1.06-3.56-2.16-5.39-3.16a1.38,1.38,0,0,1-.77-1.89,17.9,17.9,0,0,1,8.93-11.41c2.07-1.13,4.27-2,6.41-3" transform="translate(-565.82 -204)"/><path class="cls-8" d="M657.67,409.42a27.63,27.63,0,0,0-7.2-16.81c-1.33-1.51-2.87-2.85-4.31-4.27,3.28,1.63,6.65,3.12,9.82,4.94a17.41,17.41,0,0,1,8,10.37c.37,1.17.33,2-.93,2.59-1.85.95-3.6,2.11-5.39,3.18" transform="translate(-565.82 -204)"/><path class="cls-9" d="M641.67,400.67c.46-.05,1-.11,1.15.41s-.44.57-.74.77c-3.59,2.3-7.19,4.58-10.79,6.87-.46.29-1.08.42-1.15,1.11-1.6-1.38-2-3.3-2.39-5.25-.18-.9.2-1.16,1-1.29,4.19-.64,8.37-1.34,12.56-2,.31-.09.49-.26.32-.61" transform="translate(-565.82 -204)"/><path class="cls-10" d="M708,406.81l-12.59-4.76a5.66,5.66,0,0,1-.71-.41,1.48,1.48,0,0,1,1.36,0l10.51,1.67c2.29.36,2.3.35,1.76,2.59a7.92,7.92,0,0,1-.33.93" transform="translate(-565.82 -204)"/><path class="cls-9" d="M644.4,408.13c.3-.11.4-.64.81-.46s.24.6.19.9c-.36,2-.72,4-1.12,6-.13.65-.3,1.23.57,1.45a6.94,6.94,0,0,1-6.52-1.15c-.84-.68-1-1.22.07-1.91,1.68-1.14,3.28-2.39,4.89-3.62.43-.33,1.06-.48,1.11-1.17" transform="translate(-565.82 -204)"/><path class="cls-10" d="M691.28,416c.79,0,1-.35.79-1.18-.44-2.18-.73-4.39-1.07-6.6,0,0,.06-.12.08-.11a1,1,0,0,1,.25.08c.54.36,1.47.07,1.66,1,1.64,1.26,3.23,2.59,4.94,3.75,1.13.77.89,1.33,0,2a7.16,7.16,0,0,1-6.67,1.06" transform="translate(-565.82 -204)"/><path class="cls-3" d="M672.57,204c1.62,12.23,8.63,21.26,17.38,29.25.25.22.48.45.87.82-1.29.43-2.45.76-3.57,1.2-4.54,1.8-5.62,5-3.46,9.36,3.76,7.61,11.15,6.3,15.14,2.79a25,25,0,0,0,5.91-8.41,63.86,63.86,0,0,0,4.39-13.35c.12-.53,0-1.16.72-1.42a3.79,3.79,0,0,1,.15,1.83c0,6.09,0,12.19,0,18.28a4.41,4.41,0,0,0,.13,1.84c.59,5,3.23,8,7.41,8.31s9.22-4.06,9.63-8.15a4.58,4.58,0,0,0-2-4.23,16.34,16.34,0,0,0-3.59-1.83,13.33,13.33,0,0,1,4.93-3,87.86,87.86,0,0,1,16-4.36,107.59,107.59,0,0,1,11-1.8c.61,0,1.34-.57,1.79.34-8.87,5.2-14.49,13.33-19.62,21.87a146.86,146.86,0,0,0-11,22.93,2.57,2.57,0,0,1-1.76,1.8q-25.24,8-50.46,16.07a4.24,4.24,0,0,1-2.79,0q-24-7.84-48.09-15.61a3.07,3.07,0,0,1-2.18-2c-4.17-10.93-9.2-21.43-16-31-4-5.57-8.46-10.63-14.54-14,.44-.85,1.11-.37,1.71-.31,11.06,1.73,22.25,3,32.52,8.86-1.46.79-2.55,1.26-3.51,1.92-2.28,1.6-2.94,3.79-1.58,6.21,1.79,3.18,3.84,6.05,8.09,6.35,5.21.36,8.43-2.32,8.66-7.6.27-2.53.09-5.08.11-7.62,0-4.47,0-8.94,0-13.41,0-.52-.45-1.31.51-1.55a69,69,0,0,0,4.68,14.86A27.47,27.47,0,0,0,644.6,246a12.14,12.14,0,0,0,4.3,3.25c7.46,3.11,12.31-2,13.31-8.43.31-2-1-3.5-2.65-4.6s-3.5-1.47-5.45-2.14c9-8.35,16.53-17.46,18.12-30.1Z" transform="translate(-565.82 -204)"/><path class="cls-11" d="M703.72,265.35a5.27,5.27,0,0,0-1.21-2.07,5.66,5.66,0,0,0-2.15-1.36,8.89,8.89,0,0,0-3.14-.49h-29c-2.29,0-3.94.52-4.93,1.55a5.81,5.81,0,0,0-1.5,4.21,7.77,7.77,0,0,0,.3,2.16,4.37,4.37,0,0,0,1.07,1.85,5.17,5.17,0,0,0,2.07,1.27,9.91,9.91,0,0,0,3.36.47h4.68a3.51,3.51,0,0,1,2.14.51,2,2,0,0,1,.66,1.7,2.06,2.06,0,0,1-.6,1.66,3.06,3.06,0,0,1-2,.5H656.28a12,12,0,0,0,.76-4.59V252.87h-4v8.56h-8.7a8.2,8.2,0,0,0-6.26,2.43c-1.54,1.62-2.3,4.1-2.3,7.44s.76,5.82,2.3,7.43a8.2,8.2,0,0,0,6.26,2.43h29.11a8.86,8.86,0,0,0,2.95-.44,5.36,5.36,0,0,0,2-1.24,4.69,4.69,0,0,0,1.14-1.88,7.77,7.77,0,0,0,.36-2.42,7.52,7.52,0,0,0-.3-2.16,4,4,0,0,0-1.07-1.76,5.45,5.45,0,0,0-2.09-1.2,11,11,0,0,0-3.38-.44h-4.64a3.27,3.27,0,0,1-2.22-.55,2,2,0,0,1-.58-1.58,2.22,2.22,0,0,1,.6-1.69,2.87,2.87,0,0,1,2-.56h29a3,3,0,0,1,2.34.79,2.83,2.83,0,0,1,.69,1.94v1.5h-9.38a10.64,10.64,0,0,0-3.1.39,5.15,5.15,0,0,0-2.06,1.12,4.36,4.36,0,0,0-1.14,1.77,7.39,7.39,0,0,0-.35,2.4,6.05,6.05,0,0,0,1.55,4.41q1.54,1.6,5.06,1.6H700a7.8,7.8,0,0,0,2-.22,2.74,2.74,0,0,0,1.25-.69,2.49,2.49,0,0,0,.62-1.22,8.5,8.5,0,0,0,.17-1.83v-9.27a8.61,8.61,0,0,0-.38-2.58m-55.09,12h-3.92a4.64,4.64,0,0,1-3.76-1.4c-.78-.93-1.17-2.47-1.17-4.61s.39-3.69,1.17-4.64a4.64,4.64,0,0,1,3.76-1.42H653v7.29a5.39,5.39,0,0,1-1,3.66,4.41,4.41,0,0,1-3.41,1.12m51.58-1c0,.67-.36,1-1.08,1h-8.3a2.86,2.86,0,0,1-2.13-.65,2.36,2.36,0,0,1-.64-1.74,2.24,2.24,0,0,1,.64-1.7,3.13,3.13,0,0,1,2.2-.61h9.31Z" transform="translate(-565.82 -204)"/></g></g></g></svg>