<svg xmlns="http://www.w3.org/2000/svg" xmlns:xlink="http://www.w3.org/1999/xlink" viewBox="0 0 199.65 315"><defs><style>.cls-1{fill:none;}.cls-2{clip-path:url(#clip-path);}.cls-3{fill:#221f20;}.cls-4{fill:#fefefe;}.cls-5{fill:#c69c6d;}.cls-6{fill:red;}.cls-7{fill:blue;}.cls-8{fill:#39b54a;}.cls-9{fill:#cbcbcb;}.cls-10{fill:#cacaca;}.cls-11{fill:#b3b3b3;}</style><clipPath id="clip-path" transform="translate(0)"><rect class="cls-1" width="199.65" height="315"/></clipPath></defs><title>logo</title><g id="Layer_2" data-name="Layer 2"><g id="Layer_1-2" data-name="Layer 1"><g id="Artwork_5" data-name="Artwork 5"><g class="cls-2"><g class="cls-2"><path class="cls-3" d="M199.65,120.07a6.16,6.16,0,0,0-3.07-4.47c-7.73-4.61-15.42-9.3-23.11-14-2.52-1.54-7.76-4.51-7.78-4.57s5.71,1.6,8.31,2.27c7.21,1.85,14.46,3.51,21.68,5.33.64.16,1.55.58,1.89-.12s-.59-1.1-1.11-1.45c-1.87-1.29-3.8-2.49-5.71-3.71q-21.17-13.48-42.26-27.07a4.43,4.43,0,0,0-4.15-.52C129.53,76.58,114.78,81.56,100,86.5a6.73,6.73,0,0,1-4.3,0C81,81.5,66.13,76.8,51.4,71.77a4.21,4.21,0,0,0-4.15.53c-3.62,2.56-7.29,5-11,7.55C26.14,86.78,16,93.76,5.86,100.68c-.65.44-1.55,1.43-1.47,1.85.14.69,1.31.57,1.74.43,7.46-2.55,15.33-3.67,22.79-5.43C19.87,103,10.62,110,1.4,115.6c-5.64,3.45,7.48,71.68,9.12,69.37.13-.17.24-.35.36-.52,2.9-4.22,5.87-8.4,8.76-12.62a24.35,24.35,0,0,1,1.67-2.26c.05,3.91-.4,24.1-.61,30.63a6.2,6.2,0,0,0,2.14,5.46c8.18,7.94,16,16.21,24.37,24,1.74,1.62,2.08,1.58,3.51-.4,1.78-2.45,3.39-5,5.25-7.67-.2,4.92,0,9.61-.12,14.3,0,.77,6.52,13.53,14.54,28.6l9.38-26.94a93.5,93.5,0,0,1-8,29.52C77.14,277.14,83,288,88,296.82l3.38-6.18a73.32,73.32,0,0,1-2.84,7.15c5,8.92,9,15.65,10.42,17.21,1.27-1.75,5.19-8.49,10.19-17.32a72,72,0,0,1-2.79-7l3.33,6.08c5-8.82,10.92-19.55,16.36-29.47a93,93,0,0,1-8.08-29.7l9.46,27.18C135.5,250,142.11,237.57,142.1,237c0-3.38,0-13.36,0-15.35,1.74,2.81,3,5.4,4.53,7.87,1,1.64,1.48,1.7,2.9.38.27-.25,16.34-16.87,24.37-24.66a4.8,4.8,0,0,0,1.47-3.68c.08-6.2-.6-28.4-.67-32,3.64,5.2,7,10.2,10.42,15.14Z" transform="translate(0)"/><path class="cls-4" d="M147.34,140.64c-4-3.18-7.94-6.4-11.9-9.6-1.21,0-1.1,1-1.17,1.68a23.09,23.09,0,0,1-2.92,9.44,11.41,11.41,0,0,1-8.54,5.86,21.43,21.43,0,0,1-5.66-.13c-.78-.08-1.5-.09-1.67.93a36.35,36.35,0,0,0-.48,4.86c.09,3-2.22,4.37-3.72,6.34-.31-3.73-.54-7.39-.58-11.05a3.71,3.71,0,0,0-1.61-3.26c-3.42-2.64-6-5.89-6.36-10.44a3.71,3.71,0,0,1,0-2.26c.56.13.47.68.66,1a15.55,15.55,0,0,0,7.44,7.23c.65-2.38,1.32-4.64,1.86-6.94a2.56,2.56,0,0,1,1.62-1.91c2.18-1,4.31-2.17,6.47-3.26a12.54,12.54,0,0,0,2.16-1.83,24.39,24.39,0,0,0,5.87-18.87c-.16-1.68-.07-3.52-1.4-4.91a84.38,84.38,0,0,0-10.19-6.9,2.14,2.14,0,0,0-2.45-.06c-6.07,3.29-12.19,6.48-18.26,9.78a2.23,2.23,0,0,1-2.43,0c-6.07-3.29-12.17-6.53-18.26-9.77-.54-.29-1-.69-1.74-.26a76.6,76.6,0,0,0-11.33,7.74,4.27,4.27,0,0,0-.83,1.68,22,22,0,0,0,.41,11.1,24.77,24.77,0,0,0,12.19,14.53,8.47,8.47,0,0,0,1.25.68,3.75,3.75,0,0,1,2.59,3.2c.39,2,1,4,1.61,6.08a15.52,15.52,0,0,0,8.06-8.86c.64,5.7-2,9.85-6.16,13.14A3.88,3.88,0,0,0,80.19,149c0,3.67-.28,7.33-.45,11.23-2.29-2.32-4.22-4.48-4-7.79a14.31,14.31,0,0,0-.28-2.66c-.3-2.09-.3-2.1-2.43-1.7-.57.1-1.14.14-1.7.21a18.52,18.52,0,0,1-2.58.05,9,9,0,0,1-5.44-2.22,15.29,15.29,0,0,1-4.25-5.78,36,36,0,0,1-2.44-7.8c-.12-.64-.06-1.57-1.17-1.52-4,3.26-8,6.53-12.1,9.75a1.09,1.09,0,0,0-.21,1.73,14.94,14.94,0,0,0,1.87,2.12,56.16,56.16,0,0,0,9,6.19,33,33,0,0,0,10,3.87c2.13.42,4.28.2,6.39.39a1.61,1.61,0,0,1-.44,1.24c-2.86,4.74-5.47,9.62-8.15,14.46a24.36,24.36,0,0,0-3,6.88,13.12,13.12,0,0,1-.31,1.54c-.38,1.28,0,1.8,1.38,2,3.46.6,6.88,1.43,10.32,2.17.18.09.36.16.54.26.51.73-.26.75-.57.95-3,1.94-6,3.82-9,5.74-.54.35-1.52.52-1.08,1.58.73.93,1.66.67,2.61.49,3.57-.66,7-1.75,10.68-2.08.59.41.27,1,.21,1.45-.18,1.51-.61,3-.79,4.5-.09.69-.24,1.59,1,1.38a9.78,9.78,0,0,0,2.86-.82c3.31-1.28,6.12-3.43,9.09-5.3a2.69,2.69,0,0,0,.26-2.56c-1.57-7-4.72-13.08-11-17.1l-4.33-2.62a5.13,5.13,0,0,1,3.66-1.76,19.57,19.57,0,0,0,2.54,0,11.54,11.54,0,0,1,4.51,1.33q6.53,2.85,13,5.76a2.26,2.26,0,0,0,2.07,0c4.47-2,9-4,13.45-6a15.1,15.1,0,0,1,4.69-1.34,6.5,6.5,0,0,1,5.71,1.87l-6.72,4a19,19,0,0,0-2.3,2.59,50.17,50.17,0,0,0-6.32,13.75c-.19.6-.41,1.22.06,1.8,1.61,1.07,3.2,2.18,4.85,3.2a20.69,20.69,0,0,0,7.17,3.12c1.29.43,1.31-.39,1.21-1.26-.19-1.82-.81-3.58-.72-5.45.55-.35,1.22.15,1.77-.24a88.23,88.23,0,0,1,9.37,1.87,2.61,2.61,0,0,0,2.88-1.06,4.89,4.89,0,0,0,1.11-2.38c.09-.85-.65-.85-1.12-1-3.61-1.38-7.22-2.79-11-3.81-.23-.17-.8,0-.63-.57,3.89-.87,7.77-1.75,11.66-2.59.7-.15,1.19-.3,1-1.2-.36-1.91-.66-3.83-1-5.75a18.73,18.73,0,0,0-1.1-2.95,109.57,109.57,0,0,0-5.74-9.83c-1.26-2-2.69-3.85-4.12-6a36.71,36.71,0,0,0,7-.74c6.25-1.42,11.63-4.62,16.78-8.28a13,13,0,0,0,2.73-2.61c.37-1,1.65-1.95.18-3.12" transform="translate(0)"/><path class="cls-4" d="M97.4,201.29a11.86,11.86,0,0,0-7.44.45,24.32,24.32,0,0,0-9.21,6.48c-.67.71-1.55,1.3-1.76,2.37.19,1.37,1.24,2.14,2.08,3.06.65.71,1,.51,1.27-.32.55-1.45,1.19-2.87,1.84-4.43.39,1.27.64,2.36,1,3.38,3,7.55,11.7,9,17,2.88a15.22,15.22,0,0,0,1.58-2.17c.8-1.35,1.51-2.75,2.32-4.26.74,1.88,1.44,3.65,2.17,5.53a8,8,0,0,0,3.08-3.62c.16-1-.53-1.65-1.13-2.3-3.48-3.79-8-5.71-12.83-7.05" transform="translate(0)"/><path class="cls-5" d="M111.36,210.64c-2.65-4.08-6.64-6.3-11.06-7.93-3.06-1.13-6.11-1.87-9.37-.8a23.59,23.59,0,0,0-9.8,6.62A10,10,0,0,1,79,210.59c-1.45-2.41-1.37-5-.88-7.64.1-.55.54-.74,1-1,5.11-2.74,10.23-5.47,15.33-8.24a1.61,1.61,0,0,1,1.74.05q7.58,4.13,15.17,8.2a1.56,1.56,0,0,1,1,1.13,10.91,10.91,0,0,1-.93,7.51" transform="translate(0)"/><path class="cls-6" d="M43.18,142.49a79.76,79.76,0,0,0,11.15,8c5.12,2.87,10.48,4.6,16.43,4,.2,0,.41-.12.63.26-4.37,7.49-8.71,15.1-12.66,22.92.77-5.31,1.49-10.63,2.32-15.94a1.49,1.49,0,0,0-1-1.9c-6.44-3.14-11.77-7.54-15.35-13.87a11.38,11.38,0,0,1-1.51-3.44" transform="translate(0)"/><path class="cls-6" d="M131.58,174.16c-1.63-2.94-3.21-5.91-4.92-8.81a107.69,107.69,0,0,0-7-10.34c1.72-.49,3.39-.18,5-.37,5.37-.64,10.09-2.8,14.67-5.5,2.73-1.6,5.17-3.61,7.78-5.38a26.12,26.12,0,0,1-6.67,9.45,35.67,35.67,0,0,1-9.75,6.64,1.42,1.42,0,0,0-.92,1.82c.61,4.16,1.42,8.29,1.76,12.49" transform="translate(0)"/><path class="cls-7" d="M62.57,104.35c-1.59,3.59-1.2,8.77-.4,12.35,2.39,5.18,5.19,10.1,10,13.15a8.7,8.7,0,0,1,2,1.59c-4-1.93-8.41-3.53-12.44-5.47-1.57-.75-6.83-4-6.85-5.61a42.3,42.3,0,0,1,.79-8.48,4.87,4.87,0,0,1,.93-2,25.85,25.85,0,0,1,6-5.54" transform="translate(0)"/><path class="cls-7" d="M128.11,104.35c1.59,3.59,1.19,8.77.4,12.35-2.39,5.18-5.19,10.1-10,13.15a8.49,8.49,0,0,0-2,1.59c4-1.93,8.41-3.53,12.44-5.47,1.56-.75,6.83-4,6.85-5.61a42.3,42.3,0,0,0-.79-8.48,4.87,4.87,0,0,0-.93-2,26,26,0,0,0-6-5.54" transform="translate(0)"/><path class="cls-7" d="M68.56,148.8c-4-.29-6.61-2.71-8.62-5.88a29.19,29.19,0,0,1-3.8-10.6c-.09-.48,0-1.11-.65-1.31.28-.54.69-.36,1.07-.17.57.29,1.11.64,1.69.87a6.76,6.76,0,0,1,4.41,4.93c1.36,4.92,5.65,7.79,11,8,1.18,0,1.56.39,1.56,1.53s.17,2.41.28,3.62c-.21-1.47-1-1.76-2.28-1.19a4,4,0,0,1-1.82.23,5.47,5.47,0,0,0-2.84,0" transform="translate(0)"/><path class="cls-7" d="M122.17,148.8c4-.29,6.61-2.71,8.62-5.88a29.19,29.19,0,0,0,3.8-10.6c.09-.48,0-1.11.65-1.31-.28-.54-.69-.36-1.07-.17-.57.29-1.11.64-1.69.87a6.78,6.78,0,0,0-4.41,4.93c-1.36,4.92-5.65,7.79-11,8-1.18,0-1.56.39-1.56,1.53s-.17,2.41-.27,3.62c.2-1.47,1-1.76,2.27-1.19a4,4,0,0,0,1.82.23,5.47,5.47,0,0,1,2.84,0" transform="translate(0)"/><path class="cls-8" d="M113.52,173.17c-1.26,2-2.6,3.88-3.76,5.91a47.53,47.53,0,0,0-4.8,12.23c-1.67-1-3.33-2-5-2.94a1.29,1.29,0,0,1-.71-1.77A16.67,16.67,0,0,1,107.54,176c1.93-1.05,4-1.88,6-2.8" transform="translate(0)"/><path class="cls-8" d="M85.65,191.54a25.81,25.81,0,0,0-6.71-15.68c-1.25-1.41-2.68-2.65-4-4,3.06,1.53,6.19,2.91,9.16,4.61a16.24,16.24,0,0,1,7.46,9.67c.35,1.09.31,1.82-.86,2.42-1.73.88-3.36,2-5,3" transform="translate(0)"/><path class="cls-9" d="M70.73,183.38c.42,0,.93-.1,1.07.38s-.4.54-.69.72l-10.06,6.41c-.43.27-1,.39-1.07,1-1.5-1.28-1.88-3.08-2.23-4.9-.17-.84.18-1.07,1-1.19,3.9-.6,7.81-1.25,11.71-1.89.29-.08.46-.23.3-.56" transform="translate(0)"/><path class="cls-10" d="M132.6,189.11l-11.73-4.44a4.5,4.5,0,0,1-.67-.39,1.39,1.39,0,0,1,1.27,0l9.8,1.55c2.14.33,2.14.33,1.64,2.42a7.55,7.55,0,0,1-.31.87" transform="translate(0)"/><path class="cls-9" d="M73.27,190.33c.28-.09.37-.6.76-.42s.22.55.17.84c-.33,1.85-.66,3.7-1,5.55-.12.61-.28,1.15.54,1.36a6.47,6.47,0,0,1-6.08-1.08c-.79-.63-.9-1.13.06-1.78,1.56-1.06,3.06-2.23,4.56-3.37.4-.31,1-.46,1-1.1" transform="translate(0)"/><path class="cls-10" d="M117,197.63c.74,0,.9-.33.74-1.1-.41-2-.68-4.1-1-6.15,0,0,.06-.12.08-.11a2.17,2.17,0,0,1,.24.07c.5.34,1.36.07,1.54.94,1.53,1.17,3,2.41,4.61,3.49,1,.72.83,1.25,0,1.87a6.7,6.7,0,0,1-6.22,1" transform="translate(0)"/><path class="cls-3" d="M99.54,0c1.51,11.4,8,19.82,16.21,27.27l.81.77c-1.2.4-2.29.7-3.33,1.12C109,30.83,108,33.82,110,37.89c3.51,7.09,10.4,5.87,14.12,2.6a23.28,23.28,0,0,0,5.51-7.84,59.92,59.92,0,0,0,4.09-12.45c.12-.5.05-1.09.68-1.33a3.68,3.68,0,0,1,.14,1.71c0,5.68,0,11.36,0,17a4.16,4.16,0,0,0,.12,1.72c.55,4.68,3,7.45,6.91,7.74s8.6-3.78,9-7.59a4.25,4.25,0,0,0-1.89-3.94,15,15,0,0,0-3.35-1.71,12.46,12.46,0,0,1,4.6-2.81A81.52,81.52,0,0,1,164.86,27a98.92,98.92,0,0,1,10.29-1.68c.57,0,1.25-.53,1.67.31C168.55,30.45,163.31,38,158.53,46a136.29,136.29,0,0,0-10.27,21.37,2.42,2.42,0,0,1-1.64,1.69Q123.09,76.5,99.57,84a4,4,0,0,1-2.6,0Q74.56,76.73,52.12,69.49a2.84,2.84,0,0,1-2-1.9,127.85,127.85,0,0,0-14.91-28.9c-3.69-5.2-7.89-9.91-13.55-13.09.41-.79,1-.34,1.6-.28C33.53,26.93,44,28.1,53.55,33.58c-1.36.74-2.38,1.17-3.27,1.79-2.14,1.49-2.75,3.53-1.48,5.79,1.66,3,3.58,5.64,7.54,5.92,4.86.34,7.86-2.16,8.08-7.09.25-2.36.08-4.73.1-7.1,0-4.17,0-8.34,0-12.51,0-.48-.42-1.22.48-1.44A64.64,64.64,0,0,0,69.4,32.79a25.74,25.74,0,0,0,4.06,6.39,11.25,11.25,0,0,0,4,3c7,2.9,11.48-1.86,12.41-7.86.29-1.88-.92-3.26-2.47-4.29a20.92,20.92,0,0,0-5.08-2C90.75,20.28,97.74,11.79,99.22,0Z" transform="translate(0)"/><path class="cls-11" d="M128.59,57.21a4.81,4.81,0,0,0-1.13-1.93,5.3,5.3,0,0,0-2-1.28,8.47,8.47,0,0,0-2.93-.45H95.45q-3.21,0-4.6,1.45a5.4,5.4,0,0,0-1.4,3.92,7.58,7.58,0,0,0,.28,2,4.11,4.11,0,0,0,1,1.72,4.85,4.85,0,0,0,1.93,1.19,9.51,9.51,0,0,0,3.14.43h4.35a3.38,3.38,0,0,1,2,.47,2.4,2.4,0,0,1,0,3.14,2.9,2.9,0,0,1-1.85.47h-16a11.12,11.12,0,0,0,.71-4.29V45.57H81.33v8H73.22a7.62,7.62,0,0,0-5.84,2.27q-2.14,2.26-2.15,6.93t2.15,6.93A7.65,7.65,0,0,0,73.22,72h27.14a8,8,0,0,0,2.75-.42A5.07,5.07,0,0,0,105,70.38a4.38,4.38,0,0,0,1.06-1.76,7.28,7.28,0,0,0,.33-2.25,7,7,0,0,0-.28-2,3.92,3.92,0,0,0-1-1.64,5.21,5.21,0,0,0-2-1.11,10,10,0,0,0-3.16-.42H95.69a3.15,3.15,0,0,1-2.07-.5,1.93,1.93,0,0,1-.54-1.48,2,2,0,0,1,.56-1.57,2.63,2.63,0,0,1,1.84-.53h27a2.78,2.78,0,0,1,2.18.74,2.62,2.62,0,0,1,.64,1.81V61h-8.74a9.74,9.74,0,0,0-2.9.37,4.79,4.79,0,0,0-1.91,1,4,4,0,0,0-1.07,1.66,6.93,6.93,0,0,0-.33,2.23,5.65,5.65,0,0,0,1.45,4.11c1,1,2.54,1.5,4.72,1.5h8.61a7.23,7.23,0,0,0,1.9-.21,2.45,2.45,0,0,0,1.16-.64,2.29,2.29,0,0,0,.58-1.14,8.11,8.11,0,0,0,.16-1.7V59.61a8,8,0,0,0-.35-2.4M77.22,68.36H73.56a4.33,4.33,0,0,1-3.5-1.31,6.69,6.69,0,0,1-1.1-4.3,6.77,6.77,0,0,1,1.1-4.32,4.3,4.3,0,0,1,3.5-1.33h7.77v6.8a5,5,0,0,1-.94,3.41,4.07,4.07,0,0,1-3.17,1m48.09-.94c0,.63-.33.94-1,.94h-7.73a2.68,2.68,0,0,1-2-.61,2.21,2.21,0,0,1-.59-1.62,2.11,2.11,0,0,1,.59-1.59,2.93,2.93,0,0,1,2.06-.57h8.67Z" transform="translate(0)"/></g></g></g></g></g></svg>